<svg xmlns="http://www.w3.org/2000/svg" version="1.1" xmlns:xlink="http://www.w3.org/1999/xlink" xmlns:svgjs="http://svgjs.dev/svgjs" width="1000" height="623" viewBox="0 0 1000 623"><g transform="matrix(1,0,0,1,-0.6060606060606233,0.2522267206477409)"><svg viewBox="0 0 396 247" data-background-color="#ffffff" preserveAspectRatio="xMidYMid meet" height="623" width="1000" xmlns="http://www.w3.org/2000/svg" xmlns:xlink="http://www.w3.org/1999/xlink"><g id="tight-bounds" transform="matrix(1,0,0,1,0.2400000000000091,-0.09999999999999432)"><svg viewBox="0 0 395.52 247.2" height="247.2" width="395.52"><g><svg></svg></g><g><svg viewBox="0 0 395.52 247.2" height="247.2" width="395.52"><g transform="matrix(1,0,0,1,143.84131764705882,47.215199999999996)"><svg viewBox="0 0 107.83736470588234 152.7696" height="152.7696" width="107.83736470588234"><g><svg viewBox="0 0 107.83736470588234 152.7696" height="152.7696" width="107.83736470588234"><g><svg viewBox="0 0 107.83736470588234 152.7696" height="152.7696" width="107.83736470588234"><g><svg viewBox="0 0 107.83736470588234 152.7696" height="152.7696" width="107.83736470588234"><g id="textblocktransform"><svg viewBox="0 0 107.83736470588234 152.7696" height="152.7696" width="107.83736470588234" id="textblock"><g><svg viewBox="0 0 107.83736470588234 152.7696" height="152.7696" width="107.83736470588234"><g transform="matrix(1,0,0,1,0,0)"><svg width="107.83736470588234" viewBox="3.799999952316284 -36.54999923706055 25.80000114440918 36.54999923706055" height="152.7696" data-palette-color="#ff0000"><path d="M5.45 0L5.45 0Q4.8 0 4.3-0.33 3.8-0.65 3.8-1.3L3.8-1.3 3.8-34.95Q3.8-35.85 4.3-36.2 4.8-36.55 5.45-36.55L5.45-36.55Q6.05-36.55 6.53-36.23 7-35.9 7.4-35.38 7.8-34.85 8.1-34.25L8.1-34.25 16.7-17.65 25.3-34.25Q25.65-34.85 26.03-35.38 26.4-35.9 26.9-36.23 27.4-36.55 27.95-36.55L27.95-36.55Q28.65-36.55 29.13-36.2 29.6-35.85 29.6-34.95L29.6-34.95 29.6-1.3Q29.6-0.65 29.1-0.33 28.6 0 27.95 0L27.95 0Q27.35 0 26.83-0.33 26.3-0.65 26.3-1.3L26.3-1.3 26.3-29.4 18-13.7Q17.7-13.15 17.35-12.9 17-12.65 16.65-12.65L16.65-12.65Q16.35-12.65 16-12.88 15.65-13.1 15.35-13.7L15.35-13.7 7.1-29.55 7.1-1.3Q7.1-0.65 6.58-0.33 6.05 0 5.45 0Z" opacity="1" transform="matrix(1,0,0,1,0,0)" fill="#ff0000" class="wordmark-text-0" data-fill-palette-color="primary" id="text-0"></path></svg></g></svg></g></svg></g></svg></g></svg></g></svg></g></svg></g><g><path d="M0 123.6c0-68.262 55.338-123.6 123.6-123.6 30.402 0 58.24 10.976 79.768 29.183l-11.147 0c-19.26-14.022-42.974-22.294-68.621-22.295-25.647 0-49.361 8.272-68.621 22.295h-1.06v0.781c-28.544 21.277-47.03 55.298-47.031 93.636 0 38.339 18.486 72.36 47.031 93.636v0.781l1.06 0c19.26 14.022 42.974 22.294 68.621 22.295 25.647 0 49.361-8.272 68.621-22.295l11.147 0c-21.528 18.206-49.366 29.183-79.768 29.183-68.262 0-123.6-55.338-123.6-123.6z" fill="#ff0000" stroke="transparent" data-fill-palette-color="tertiary"></path></g></svg></g><defs></defs></svg><rect width="395.52" height="247.2" fill="none" stroke="none" visibility="hidden"></rect></g></svg></g></svg>